<?xml version="1.0" encoding="UTF-8"?>
<svg version="1.1" xmlns="http://www.w3.org/2000/svg" width="224" height="224">
<path d="M0 0 C15.63063084 16.60754527 20.39823186 41.36890482 20.125 63.2578125 C19.238125 62.3709375 18.35125 61.4840625 17.4375 60.5703125 C0.90263164 46.54874413 -29.10230713 46.91218433 -49.54492188 48.45996094 C-77.83056691 51.21370669 -102.10714842 62.49726852 -120.875 84.2578125 C-129.79552686 95.87860694 -134.03009012 108.67067442 -132.875 123.2578125 C-130.46926089 134.4459486 -123.89269277 141.57221017 -114.55078125 147.78125 C-106.70239972 152.11218171 -97.59541627 153.86103443 -88.90625 151.42578125 C-83.50135794 149.97015441 -83.50135794 149.97015441 -79.875 146.2578125 C-80.74125 146.8971875 -81.6075 147.5365625 -82.5 148.1953125 C-88.98487632 152.15829248 -97.04829963 152.13001869 -104.42578125 150.796875 C-113.28626308 148.45429038 -120.63392911 143.81112055 -125.875 136.2578125 C-130.00236844 128.01311789 -130.15553583 119.06001438 -128.18359375 110.125 C-121.34745789 90.0456386 -105.70210264 76.55528856 -87.25390625 67.30078125 C-61.94461389 55.15031534 -31.1963972 52.16327743 -4.25390625 60.359375 C4.64434064 63.54834209 13.70705443 67.42192136 18.125 76.2578125 C21.30226248 88.85854667 13.22520633 105.55710812 6.87792969 116.38525391 C-0.51297878 128.34979835 -0.51297878 128.34979835 -4.875 131.2578125 C-4.94976562 130.42378906 -5.02453125 129.58976563 -5.1015625 128.73046875 C-6.24309732 118.96027364 -8.81124247 112.33501922 -16.5 106.0078125 C-32.77376462 94.78452655 -53.03504258 93.67361119 -71.94433594 96.88232422 C-84.96072075 99.41383659 -97.18115503 105.1701913 -104.875 116.2578125 C-107.70666676 122.06969247 -107.97621337 128.43485019 -106.1875 134.64453125 C-104.63042096 138.15444692 -103.29741172 139.96020424 -100.125 142.1953125 C-95.28091616 143.77895529 -91.03660804 144.7177291 -85.9375 143.6328125 C-83.64417073 142.40288181 -83.64417073 142.40288181 -83 139.7578125 C-82.66981757 137.25874303 -82.66981757 137.25874303 -83.875 135.2578125 C-85.195 135.2578125 -86.515 135.2578125 -87.875 135.2578125 C-88.205 136.5778125 -88.535 137.8978125 -88.875 139.2578125 C-89.535 138.9278125 -90.195 138.5978125 -90.875 138.2578125 C-90.625 135.3828125 -90.625 135.3828125 -89.875 132.2578125 C-85.60480788 129.38548596 -80.82043095 129.61717216 -75.875 130.2578125 C-72.02775272 132.21641112 -68.78772101 134.3261082 -66.875 138.2578125 C-66.17777436 142.75965211 -66.44017702 146.24981377 -68.25 150.4453125 C-74.87656479 157.54520335 -83.4075245 161.05334426 -93.03125 161.59375 C-112.84576057 162.0062218 -128.9633963 156.75281385 -143.875 143.2578125 C-155.75728361 131.74146878 -162.74255145 117.5188263 -163.34594727 100.95825195 C-163.6372297 75.13692044 -152.5520519 54.18354065 -134.875 35.9453125 C-129.80364305 31.05021124 -124.44113116 26.57744387 -118.875 22.2578125 C-118.00101563 21.57847656 -117.12703125 20.89914063 -116.2265625 20.19921875 C-95.82959245 4.85662984 -71.3307716 -5.12272815 -45.875 -7.7421875 C-44.83601563 -7.86335938 -43.79703125 -7.98453125 -42.7265625 -8.109375 C-28.39844728 -9.53177869 -11.52626603 -9.83849136 0 0 Z M-77.875 137.2578125 C-76.875 140.2578125 -76.875 140.2578125 -76.875 140.2578125 Z M-77.875 141.2578125 C-76.875 144.2578125 -76.875 144.2578125 -76.875 144.2578125 Z " fill="#01448D" transform="translate(199.875,44.7421875)"/>
<path d="M0 0 C0.63212402 0.21430664 1.26424805 0.42861328 1.91552734 0.64941406 C17.53697961 6.05184935 35.43549843 14.93262311 45 29 C43.89527344 28.855625 42.79054687 28.71125 41.65234375 28.5625 C3.17934114 23.84150001 -36.46904288 29.26768636 -67.984375 53.5546875 C-72.48973834 57.20800026 -76.80516939 60.99515266 -81 65 C-81.5878125 65.52464844 -82.175625 66.04929687 -82.78125 66.58984375 C-98.24244714 80.92062317 -111.99388292 104.98178684 -113.12280273 126.32128906 C-113.75096607 146.81201539 -111.0653009 164.57838401 -97.2734375 180.6953125 C-83.45256547 194.70616215 -65.06290183 201.96810785 -45.5859375 203 C-34.67347362 203 -24.17277478 201.11518319 -15 195 C-11.81278571 191.81278571 -10.71085569 189.05457789 -10.6875 184.5625 C-10.84088501 179.05868505 -12.4533614 176.4673238 -16.4375 172.6875 C-21.50898715 170.28521661 -26.47110627 170.14525459 -32 171 C-34.34804209 172.25176594 -34.34804209 172.25176594 -36 174 C-36.66666667 176.5 -36.66666667 176.5 -36 179 C-34.0995533 180.84315671 -34.0995533 180.84315671 -32 182 C-38.75 181.25 -38.75 181.25 -41 179 C-41.57735351 174.71108821 -41.33446554 172.56859142 -39.125 168.8125 C-34.05382308 163.51404344 -27.19691009 161.77796403 -20.0625 161.5 C-10.47794912 161.86910979 -1.95223149 165.35930718 5 172 C9.16095842 176.99556926 10.53214104 181.50787934 10 188 C7.6314053 195.67907454 2.26384833 200.71976807 -4.6953125 204.44140625 C-26.17253693 214.0345665 -49.14801347 212.94273091 -70.87890625 204.97973633 C-97.52227829 194.58868217 -119.38322914 174.55356911 -131.30004883 148.53100586 C-143.32384942 120.93056554 -144.13577846 90.90577189 -133.14794922 62.82226562 C-122.06609015 36.01460656 -101.57632644 15.07119546 -74.91796875 3.53515625 C-52.08050277 -5.75990857 -23.56907865 -8.15171141 0 0 Z " fill="#28166E" transform="translate(145,4)"/>
<path d="M0 0 C4.54188761 3.85520914 6.25379079 7.72359522 6.80859375 13.53515625 C4.20050277 30.8329361 -3.62009012 46.74809011 -14.19140625 60.53515625 C-15.18140625 61.19515625 -16.17140625 61.85515625 -17.19140625 62.53515625 C-17.30355469 61.28412109 -17.30355469 61.28412109 -17.41796875 60.0078125 C-18.55950357 50.23761739 -21.12764872 43.61236297 -28.81640625 37.28515625 C-45.09017087 26.0618703 -65.35144883 24.95095494 -84.26074219 28.15966797 C-97.277127 30.69118034 -109.49756128 36.44753505 -117.19140625 47.53515625 C-120.02307301 53.34703622 -120.29261962 59.71219394 -118.50390625 65.921875 C-116.94682721 69.43179067 -115.61381797 71.23754799 -112.44140625 73.47265625 C-107.59732241 75.05629904 -103.35301429 75.99507285 -98.25390625 74.91015625 C-95.96057698 73.68022556 -95.96057698 73.68022556 -95.31640625 71.03515625 C-94.98622382 68.53608678 -94.98622382 68.53608678 -96.19140625 66.53515625 C-91.31640625 67.41015625 -91.31640625 67.41015625 -90.19140625 68.53515625 C-89.75390625 71.78515625 -89.75390625 71.78515625 -90.19140625 75.53515625 C-94.78013363 80.69747455 -99.82697365 82.13448703 -106.57421875 82.75390625 C-116.81939166 83.1393046 -125.26293601 79.97213209 -133.19140625 73.53515625 C-138.12826976 68.88145449 -140.86234885 63.41663184 -141.625 56.73828125 C-141.6412927 40.25006562 -135.94076309 27.96079819 -124.58203125 15.90625 C-95.2587848 -13.17742744 -35.26866759 -25.30284225 0 0 Z " fill="#0192DB" transform="translate(212.19140625,113.46484375)"/>
<path d="M0 0 C5.21844018 3.66544782 8.63091367 7.47477225 10.67578125 13.609375 C11.26712551 19.64108642 10.07409672 23.7146422 6.67578125 28.609375 C-2.1281485 38.83124536 -16.49112359 42.69431132 -29.50927734 43.79394531 C-55.76764074 45.34676918 -81.63827535 36.08498456 -101.63671875 19.0625 C-106.36867572 14.7432137 -110.87231636 10.21627592 -115.32421875 5.609375 C-114.33421875 5.279375 -113.34421875 4.949375 -112.32421875 4.609375 C-111.85371094 5.15207031 -111.38320312 5.69476563 -110.8984375 6.25390625 C-110.27582031 6.96933594 -109.65320313 7.68476563 -109.01171875 8.421875 C-108.39683594 9.12957031 -107.78195313 9.83726562 -107.1484375 10.56640625 C-105.5908754 12.31074239 -103.99763 13.97715541 -102.32421875 15.609375 C-101.35544403 13.45914664 -101.35544403 13.45914664 -101.32421875 10.609375 C-103.25377873 6.40762289 -105.38526155 4.01684699 -109.63671875 2.171875 C-110.52359375 1.98625 -111.41046875 1.800625 -112.32421875 1.609375 C-110.94921875 -0.890625 -110.94921875 -0.890625 -109.32421875 -3.390625 C-108.66421875 -3.390625 -108.00421875 -3.390625 -107.32421875 -3.390625 C-106.17034304 -1.57951595 -105.10155734 0.2861071 -104.07421875 2.171875 C-94.69496054 18.55201101 -79.30545419 28.48690899 -61.26171875 33.484375 C-46.5373534 36.65789953 -30.95305764 36.69533678 -17.32421875 29.609375 C-13.80859344 27.26562479 -11.93301299 25.4803166 -10.32421875 21.609375 C-9.74872975 17.4314743 -9.87917447 13.72198571 -11.44921875 9.796875 C-14.65460424 6.05725859 -17.20483181 3.86472282 -22.2421875 3.2578125 C-28.2020234 2.96512208 -28.2020234 2.96512208 -33.66015625 4.98046875 C-35.55175873 6.52604736 -35.55175873 6.52604736 -35.82421875 9.109375 C-35.55085472 11.7651488 -35.55085472 11.7651488 -33.32421875 13.421875 C-32.33421875 14.0096875 -32.33421875 14.0096875 -31.32421875 14.609375 C-38.07421875 13.859375 -38.07421875 13.859375 -40.32421875 11.609375 C-40.90157226 7.32046321 -40.65868429 5.17796642 -38.44921875 1.421875 C-28.25138592 -9.23300356 -11.53363291 -6.90079549 0 0 Z " fill="#231467" transform="translate(144.32421875,171.390625)"/>
<path d="M0 0 C3.84724728 1.95859862 7.08727899 4.0682957 9 8 C9.69722564 12.50183961 9.43482298 15.99200127 7.625 20.1875 C0.99843521 27.28739085 -7.5325245 30.79553176 -17.15625 31.3359375 C-32.20602385 31.64922342 -47.82303849 29.54775495 -59.78125 19.50390625 C-61.1875 18.125 -61.1875 18.125 -63 16 C-62.21625 16.185625 -61.4325 16.37125 -60.625 16.5625 C-58.02910225 17.25962266 -58.02910225 17.25962266 -56 16 C-55.7525 16.78375 -55.505 17.5675 -55.25 18.375 C-54.23212253 21.05253339 -54.23212253 21.05253339 -52.1875 22.3125 C-49.68810383 23.09802451 -47.60506718 23.14472595 -45 23 C-44.67 23.99 -44.34 24.98 -44 26 C-43.34 25.01 -42.68 24.02 -42 23 C-41.2575 23.185625 -40.515 23.37125 -39.75 23.5625 C-37.05009037 23.99203108 -35.55368923 23.85122974 -33 23 C-33.928125 22.7525 -34.85625 22.505 -35.8125 22.25 C-39.16458325 20.93545755 -40.1877803 20.02036616 -42 17 C-38.52318602 17.7997514 -35.19527193 18.93490936 -31.8125 20.0625 C-22.00563827 23.04719705 -14.26670353 22.92198679 -5 18 C-2.39556929 15.23173309 -2.02396967 14.27804817 -1.6875 10.375 C-1.64401371 6.93005229 -1.64401371 6.93005229 -4 5 C-6.68839385 4.73008094 -9.29141936 4.91262643 -12 5 C-12.33 6.32 -12.66 7.64 -13 9 C-13.66 8.67 -14.32 8.34 -15 8 C-14.75 5.125 -14.75 5.125 -14 2 C-9.72980788 -0.87232654 -4.94543095 -0.64064034 0 0 Z " fill="#04438C" transform="translate(124,175)"/>
<path d="M0 0 C0 0.66 0 1.32 0 2 C-0.73766602 2.36013184 -0.73766602 2.36013184 -1.49023438 2.72753906 C-32.2668413 17.91580887 -56.71698735 40.15574824 -68.27783203 73.1640625 C-74.06007815 90.35244178 -73.72011538 108.83965385 -68 126 C-68.99 126.495 -68.99 126.495 -70 127 C-70.64715133 124.9170757 -71.29267166 122.83364461 -71.9375 120.75 C-72.29714844 119.58984375 -72.65679687 118.4296875 -73.02734375 117.234375 C-78.92825554 97.61206592 -74.37630292 76.07332456 -65.09082031 58.25537109 C-59.61454841 48.08399342 -52.83351499 39.45052962 -45 31 C-44.11441406 30.03191406 -43.22882812 29.06382813 -42.31640625 28.06640625 C-32.39743588 17.67580579 -20.85397376 9.38356129 -8 3 C-7.0409375 2.49339844 -7.0409375 2.49339844 -6.0625 1.9765625 C-2.29071101 0 -2.29071101 0 0 0 Z " fill="#160D52" transform="translate(104,40)"/>
<path d="M0 0 C1.03893131 3.11679393 0.98157688 4.94762147 0.8125 8.1875 C0.77649816 13.62377859 1.58348994 17.68161616 5 22 C9.43163566 25.12228876 13.69288628 25.7472803 19 26 C21.92511453 25.5666741 21.92511453 25.5666741 24 24 C24.99077298 21.54713404 24.99077298 21.54713404 25 19 C24.67 18.34 24.34 17.68 24 17 C28.875 17.875 28.875 17.875 30 19 C30.4375 22.25 30.4375 22.25 30 26 C25.41127262 31.1623183 20.3644326 32.59933078 13.6171875 33.21875 C7.40556027 33.45241623 1.74531916 32.40861457 -4 30 C-4.66 29.34 -5.32 28.68 -6 28 C-2.87709365 28.48578543 -0.00419641 28.9986012 3 30 C3.33 29.01 3.66 28.02 4 27 C4.66 27 5.32 27 6 27 C6 26.01 6 25.02 6 24 C5.01 23.67 4.02 23.34 3 23 C-2.36035363 16.56757564 -1.60728351 8.98428489 -1 1 C-0.67 0.67 -0.34 0.34 0 0 Z " fill="#1A85C0" transform="translate(92,163)"/>
<path d="M0 0 C0.78375 0.185625 1.5675 0.37125 2.375 0.5625 C4.97089775 1.25962266 4.97089775 1.25962266 7 0 C7.2475 0.78375 7.495 1.5675 7.75 2.375 C8.76787747 5.05253339 8.76787747 5.05253339 10.8125 6.3125 C13.31189617 7.09802451 15.39493282 7.14472595 18 7 C18.33 7.99 18.66 8.98 19 10 C19.66 9.01 20.32 8.02 21 7 C21.7425 7.185625 22.485 7.37125 23.25 7.5625 C25.94990963 7.99203108 27.44631077 7.85122974 30 7 C29.071875 6.7525 28.14375 6.505 27.1875 6.25 C23.83541675 4.93545755 22.8122197 4.02036616 21 1 C23.32584599 1.52986899 25.52266081 2.18304155 27.77734375 2.97265625 C35.72975099 5.71520461 42.61620105 6.49397179 51 6 C51 6.99 51 7.98 51 9 C45.06 8.67 39.12 8.34 33 8 C33 9.32 33 10.64 33 12 C41.09233938 14.28056837 48.50294016 12.88505667 56.43359375 10.55859375 C59 10 59 10 62 11 C47.35645973 17.60394953 30.93147255 16.20679032 16 11 C9.75813504 8.27478384 4.44059528 5.20621516 0 0 Z " fill="#044185" transform="translate(61,191)"/>
<path d="M0 0 C0.66 0 1.32 0 2 0 C3.15387571 1.81110905 4.22266141 3.6767321 5.25 5.5625 C13.90953586 20.68569759 26.40216099 28.23218764 42 35 C43.33928879 35.65462032 44.67606306 36.31486264 46 37 C40.68742101 38.77085966 35.83512399 35.3481583 31 33 C23.99137783 29.08777969 17.8351312 24.50073972 12 19 C11.67 19.99 11.34 20.98 11 22 C12.98 23.65 14.96 25.3 17 27 C16.34 27.33 15.68 27.66 15 28 C7.3650816 22.21998585 0.63839041 15.86555967 -6 9 C-5.01 8.67 -4.02 8.34 -3 8 C-2.52949219 8.54269531 -2.05898438 9.08539063 -1.57421875 9.64453125 C-0.95160156 10.35996094 -0.32898437 11.07539063 0.3125 11.8125 C0.92738281 12.52019531 1.54226562 13.22789062 2.17578125 13.95703125 C3.73334335 15.70136739 5.32658875 17.36778041 7 19 C7.96877472 16.84977164 7.96877472 16.84977164 8 14 C6.07044002 9.79824789 3.9389572 7.40747199 -0.3125 5.5625 C-1.199375 5.376875 -2.08625 5.19125 -3 5 C-1.625 2.5 -1.625 2.5 0 0 Z " fill="#160D52" transform="translate(35,168)"/>
<path d="M0 0 C3.84724728 1.95859862 7.08727899 4.0682957 9 8 C9.23534378 11.01763028 9.1742084 13.98038766 9 17 C8.34 17 7.68 17 7 17 C6.98582031 16.40832031 6.97164062 15.81664062 6.95703125 15.20703125 C6.68933129 10.77189406 6.42102984 8.5429069 3.625 4.9375 C1.14147892 2.70307385 1.14147892 2.70307385 -2 3 C0.475 5.97 0.475 5.97 3 9 C2.34 9 1.68 9 1 9 C1.33 11.31 1.66 13.62 2 16 C1.01 16.33 0.02 16.66 -1 17 C-1 18.65 -1 20.3 -1 22 C-3.90600261 23.25664978 -5.79604584 24 -9 24 C-9 23.34 -9 22.68 -9 22 C-9.66 21.67 -10.32 21.34 -11 21 C-10.43410156 20.70867187 -9.86820312 20.41734375 -9.28515625 20.1171875 C-4.47509621 17.55320332 -4.47509621 17.55320332 -1.9375 12.9375 C-1.91556752 8.5944976 -1.91556752 8.5944976 -4 5 C-6.67058851 4.85884839 -9.32432238 4.95752893 -12 5 C-12.33 6.32 -12.66 7.64 -13 9 C-13.66 8.67 -14.32 8.34 -15 8 C-14.75 5.125 -14.75 5.125 -14 2 C-9.72980788 -0.87232654 -4.94543095 -0.64064034 0 0 Z M2 13 C4 14 4 14 4 14 Z " fill="#094383" transform="translate(124,175)"/>
<path d="M0 0 C-1 3 -1 3 -4 5 C-4 5.33 -4 5.66 -4 6 C-10.6 6 -17.2 6 -24 6 C-24 5.34 -24 4.68 -24 4 C-24.804375 4.165 -25.60875 4.33 -26.4375 4.5 C-30.65887352 5.09247348 -34.74664545 5.08506709 -39 5 C-39.66 3.35 -40.32 1.7 -41 0 C-39.85402344 0.08378906 -38.70804687 0.16757813 -37.52734375 0.25390625 C-35.99742154 0.35715253 -34.4674721 0.45999567 -32.9375 0.5625 C-32.18533203 0.61857422 -31.43316406 0.67464844 -30.65820312 0.73242188 C-25.92140498 1.04000617 -21.67457788 0.83807173 -17 0 C-17 0.33 -17 0.66 -17 1 C-12.95718521 1.16845062 -9.60152172 1.00365948 -5.6875 -0.0625 C-2 -1 -2 -1 0 0 Z " fill="#27176E" transform="translate(122,207)"/>
<path d="M0 0 C0.99 0.33 1.98 0.66 3 1 C2.41734375 1.32871094 1.8346875 1.65742188 1.234375 1.99609375 C-8.17173329 7.45341129 -17.32715248 13.30507747 -24 22 C-25.17755859 22.91265625 -25.17755859 22.91265625 -26.37890625 23.84375 C-36.10132662 31.84192592 -41.56371502 44.9192319 -47 56 C-47.7109375 54.4375 -47.7109375 54.4375 -48 52 C-46.97979588 49.51809991 -45.92708514 47.32658484 -44.625 45 C-44.25777832 44.33427979 -43.89055664 43.66855957 -43.51220703 42.98266602 C-33.43675406 25.14258505 -18.49098992 9.24549496 0 0 Z " fill="#190E50" transform="translate(61,12)"/>
<path d="M0 0 C1.38866348 3.85739856 0.58445929 7.00356215 0 11 C-0.198895 14.75017958 -0.2304178 18.49511251 -0.25 22.25 C-0.270625 23.22324219 -0.29125 24.19648438 -0.3125 25.19921875 C-0.39644956 41.00272407 6.04980953 53.07743449 16 65 C15.67 65.66 15.34 66.32 15 67 C2.06634543 53.63391321 -3.57054785 38.72983125 -3.41577148 20.35839844 C-3.20413706 13.29484423 -2.07656518 6.77355786 0 0 Z " fill="#0F3973" transform="translate(40,120)"/>
<path d="M0 0 C-0.33 1.32 -0.66 2.64 -1 4 C1.97 4.495 1.97 4.495 5 5 C1.73116026 6.90682318 -1.53213611 7.6633948 -5.1953125 8.4375 C-7.22727391 8.91749919 -7.22727391 8.91749919 -9 11 C-9.50014953 13.45741537 -9.50014953 13.45741537 -9 16 C-7.0995533 17.84315671 -7.0995533 17.84315671 -5 19 C-11.75 18.25 -11.75 18.25 -14 16 C-14.60071177 11.53756974 -14.36362192 9.55612764 -11.875 5.75 C-8.21784099 2.2518479 -5.15474686 0 0 0 Z " fill="#161358" transform="translate(118,167)"/>
<path d="M0 0 C0.96373535 -0.00064453 1.9274707 -0.00128906 2.92041016 -0.00195312 C10.22135405 0.05191934 17.15419089 0.67480072 24.3125 2.1875 C24.3125 2.5175 24.3125 2.8475 24.3125 3.1875 C23.22420898 3.17702637 22.13591797 3.16655273 21.01464844 3.15576172 C16.92190934 3.1191715 12.82918426 3.09645964 8.73632812 3.07763672 C6.97523557 3.06766706 5.21415917 3.05408644 3.453125 3.03662109 C-11.23397513 2.81347231 -11.23397513 2.81347231 -25.6875 5.1875 C-26.0175 5.5175 -26.3475 5.8475 -26.6875 6.1875 C-29.35808851 6.32865161 -32.01182238 6.22997107 -34.6875 6.1875 C-31.49426452 4.05867635 -29.21932552 3.45781497 -25.5 2.625 C-24.41332031 2.37621094 -23.32664063 2.12742187 -22.20703125 1.87109375 C-14.75007657 0.42273962 -7.57930068 -0.00525155 0 0 Z " fill="#1E86BD" transform="translate(163.6875,100.8125)"/>
<path d="M0 0 C0.56074219 0.62519531 1.12148437 1.25039063 1.69921875 1.89453125 C0.46171875 1.44078125 -0.77578125 0.98703125 -2.05078125 0.51953125 C-15.67346826 -3.96469178 -33.47929172 -5.71263193 -47.30078125 -1.10546875 C-49.64138775 -1.38316783 -51.97702433 -1.71086852 -54.30078125 -2.10546875 C-54.30078125 -2.43546875 -54.30078125 -2.76546875 -54.30078125 -3.10546875 C-11.31257368 -10.35225333 -11.31257368 -10.35225333 0 0 Z " fill="#143D72" transform="translate(195.30078125,42.10546875)"/>
<path d="M0 0 C3.64226572 1.61782349 6.54983839 3.87209653 9.6875 6.3125 C14.55303389 10.04569418 19.51823304 13.24527367 25 16 C24.01 16.66 23.02 17.32 22 18 C20.72791378 17.37755401 19.45738118 16.75193233 18.1875 16.125 C17.47980469 15.77695313 16.77210937 15.42890625 16.04296875 15.0703125 C14 14 14 14 11 12 C9.34450469 11.61500109 7.6777567 11.27206865 6 11 C5.67 10.01 5.34 9.02 5 8 C4.154375 7.360625 3.30875 6.72125 2.4375 6.0625 C1.633125 5.381875 0.82875 4.70125 0 4 C0 2.68 0 1.36 0 0 Z " fill="#25166F" transform="translate(45,186)"/>
<path d="M0 0 C0 0.99 0 1.98 0 3 C-0.99 3.33 -1.98 3.66 -3 4 C-3 4.66 -3 5.32 -3 6 C-3.66 6 -4.32 6 -5 6 C-5.309375 7.0828125 -5.309375 7.0828125 -5.625 8.1875 C-7.48821128 11.99861399 -9.54872241 13.53480172 -13 16 C-13.99 16 -14.98 16 -16 16 C-16.6496875 17.11375 -16.6496875 17.11375 -17.3125 18.25 C-19.37916611 21.61790033 -21.64605276 22.97365688 -25 25 C-25.99 25.66 -26.98 26.32 -28 27 C-23.91834572 17.35847071 -12.98286319 10.30290581 -5 4 C-3.33288351 2.66722914 -1.66608286 1.33406276 0 0 Z " fill="#0A3A76" transform="translate(86,63)"/>
<path d="M0 0 C3.84724728 1.95859862 7.08727899 4.0682957 9 8 C9.23534378 11.01763028 9.1742084 13.98038766 9 17 C8.34 17 7.68 17 7 17 C6.98582031 16.40832031 6.97164062 15.81664062 6.95703125 15.20703125 C6.70162267 10.9755323 6.41041476 8.56733805 3.875 5.0625 C0.5067265 2.64612988 -1.97851131 1.86737991 -6 1 C-6 1.66 -6 2.32 -6 3 C-5.34 3.33 -4.68 3.66 -4 4 C-6.64 4.33 -9.28 4.66 -12 5 C-12.33 6.32 -12.66 7.64 -13 9 C-13.66 8.67 -14.32 8.34 -15 8 C-14.75 5.125 -14.75 5.125 -14 2 C-9.72980788 -0.87232654 -4.94543095 -0.64064034 0 0 Z " fill="#11376A" transform="translate(124,175)"/>
<path d="M0 0 C0.33 0.99 0.66 1.98 1 3 C0.34 3.66 -0.32 4.32 -1 5 C-1 4.34 -1 3.68 -1 3 C-1.66 3 -2.32 3 -3 3 C-3.33 3.66 -3.66 4.32 -4 5 C-4.33 4.34 -4.66 3.68 -5 3 C-5.66 3 -6.32 3 -7 3 C-7.4125 3.474375 -7.825 3.94875 -8.25 4.4375 C-10.65788428 6.58739668 -12.85408584 6.65045398 -16 7 C-16.33 6.01 -16.66 5.02 -17 4 C-17.99 4 -18.98 4 -20 4 C-20 3.34 -20 2.68 -20 2 C-17.79496964 1.46535565 -15.58577828 0.94785565 -13.375 0.4375 C-12.14523438 0.14746094 -10.91546875 -0.14257812 -9.6484375 -0.44140625 C-6.06141357 -0.99059728 -3.50902871 -0.81517436 0 0 Z " fill="#211263" transform="translate(103,1)"/>
<path d="M0 0 C0.33 0 0.66 0 1 0 C1 1.98 1 3.96 1 6 C0.34 6 -0.32 6 -1 6 C-3.3111371 11.58055056 -3.4315645 16.92685832 -3.625 22.875 C-3.68300781 24.33679688 -3.68300781 24.33679688 -3.7421875 25.828125 C-3.83593033 28.2185672 -3.9216383 30.60901244 -4 33 C-3.34 33 -2.68 33 -2 33 C-2 34.65 -2 36.3 -2 38 C-7.27029177 31.35484951 -6.79176714 23.14950396 -6 15 C-4.6871699 9.64912852 -2.48972543 4.88973103 0 0 Z " fill="#1E86BE" transform="translate(77,143)"/>
<path d="M0 0 C4.875 0.875 4.875 0.875 6 2 C6.4375 5.25 6.4375 5.25 6 9 C2.042633 13.45203788 -2.05698476 15.28309781 -8 16 C-11.34182003 16.13844683 -14.6581097 16.12326645 -18 16 C-18 15.67 -18 15.34 -18 15 C-17.36191406 14.93941406 -16.72382812 14.87882813 -16.06640625 14.81640625 C-15.24011719 14.73261719 -14.41382812 14.64882812 -13.5625 14.5625 C-12.73878906 14.48128906 -11.91507812 14.40007812 -11.06640625 14.31640625 C-9.01337975 14.21069185 -9.01337975 14.21069185 -8 13 C-5.71642896 12.54864839 -3.426608 12.16546935 -1.12890625 11.79296875 C1.18168222 11.17990833 1.18168222 11.17990833 2.28515625 8.92578125 C2.52105469 8.29027344 2.75695312 7.65476563 3 7 C2.34 6.67 1.68 6.34 1 6 C0.375 2.9375 0.375 2.9375 0 0 Z " fill="#1783C5" transform="translate(116,180)"/>
<path d="M0 0 C-1.01578125 0.35191406 -2.0315625 0.70382813 -3.078125 1.06640625 C-15.75038067 5.56560569 -26.60078572 11.36024874 -37 20 C-37 17 -37 17 -35.1875 14.6875 C-31.83020474 11.51193867 -27.79326313 9.54600314 -23.72265625 7.42578125 C-21.44256586 6.23175974 -19.25683547 4.96624608 -17.0625 3.625 C-14 2 -14 2 -10 2 C-10 1.34 -10 0.68 -10 0 C-6.26432828 -0.76411467 -3.65188082 -1.07174763 0 0 Z " fill="#0B3A73" transform="translate(128,97)"/>
<path d="M0 0 C2.66406226 2.66406226 2.69016823 4.26456347 3 8 C2.5903296 10.59928808 2.1126398 12.97487814 1.4375 15.5 C1.16993896 16.53362671 1.16993896 16.53362671 0.89697266 17.58813477 C-1.02307382 24.64741415 -3.58916146 31.51940678 -7 38 C-7.99 38.495 -7.99 38.495 -9 39 C-8.47344452 36.36722262 -7.65785528 34.22645541 -6.5625 31.75 C-5.16561472 28.57832811 -4.30315785 25.46351899 -3.5390625 22.08984375 C-2.96866091 19.87850425 -2.18859503 17.82033556 -1.375 15.6875 C0.43591329 10.48226179 0.27503689 5.44980503 0 0 Z " fill="#1F87C2" transform="translate(216,119)"/>
<path d="M0 0 C5.59195776 0.51428627 9.78136358 1.99245297 14.75 4.5625 C15.44230713 4.9145752 16.13461426 5.26665039 16.84790039 5.62939453 C32.36507743 13.73015485 32.36507743 13.73015485 35 19 C31.3128817 17.67758831 28.49550463 16.04092406 25.375 13.6875 C20.22523347 9.98028855 14.84998908 7.41339854 9 5 C9 4.34 9 3.68 9 3 C4.545 2.01 4.545 2.01 0 1 C0 0.67 0 0.34 0 0 Z " fill="#1A0F54" transform="translate(146,6)"/>
<path d="M0 0 C3.63 0 7.26 0 11 0 C11 0.66 11 1.32 11 2 C17.6 2 24.2 2 31 2 C30.67 2.66 30.34 3.32 30 4 C9.46808511 4.38297872 9.46808511 4.38297872 0 2 C0 1.34 0 0.68 0 0 Z " fill="#150C4D" transform="translate(87,211)"/>
<path d="M0 0 C-13.68810474 6.17306684 -28.80288505 5.21398465 -43 1 C-43 0.67 -43 0.34 -43 0 C-36.84765625 -0.09765625 -36.84765625 -0.09765625 -35 0 C-34.67 0.33 -34.34 0.66 -34 1 C-23.91278395 2.44103086 -15.40822944 2.44569964 -5.56640625 -0.44140625 C-3 -1 -3 -1 0 0 Z " fill="#143874" transform="translate(123,202)"/>
<path d="M0 0 C3.44216672 2.6598561 3.99504674 5.90288286 5 10 C5.33 9.34 5.66 8.68 6 8 C6.99 8 7.98 8 9 8 C9 6.35 9 4.7 9 3 C10.32 2.67 11.64 2.34 13 2 C13 1.34 13 0.68 13 0 C13.66 0.33 14.32 0.66 15 1 C13.56988481 3.29657911 12.13141541 5.58712162 10.6875 7.875 C10.28337891 8.52597656 9.87925781 9.17695313 9.46289062 9.84765625 C7.50036859 12.94301621 6.0874665 14.941689 3 17 C2.86722656 16.10796875 2.73445312 15.2159375 2.59765625 14.296875 C2.42105469 13.12640625 2.24445313 11.9559375 2.0625 10.75 C1.88847656 9.58984375 1.71445313 8.4296875 1.53515625 7.234375 C1.1272264 4.76893039 0.66098697 2.40575438 0 0 Z " fill="#1D89C3" transform="translate(192,159)"/>
<path d="M0 0 C0.99 0.33 1.98 0.66 3 1 C2.67 2.32 2.34 3.64 2 5 C1.39115967 5.10304443 0.78231934 5.20608887 0.1550293 5.31225586 C-4.09215171 6.66767774 -6.15482711 11.40284271 -8.14697266 15.16748047 C-9.24116637 17.40825212 -10.28621735 19.66487789 -11.3125 21.9375 C-11.67150391 22.71673828 -12.03050781 23.49597656 -12.40039062 24.29882812 C-13.27343243 26.19623898 -14.13765436 28.09770403 -15 30 C-16.4490352 25.65289439 -14.44609391 22.8567135 -12.5625 18.9375 C-12.02302734 17.79873413 -12.02302734 17.79873413 -11.47265625 16.63696289 C-8.39383003 10.36104824 -4.75759644 5.14984508 0 0 Z " fill="#11396E" transform="translate(57,90)"/>
<path d="M0 0 C0.66 0.33 1.32 0.66 2 1 C0.92173635 2.27513763 -0.16285519 3.54492569 -1.25 4.8125 C-1.85328125 5.52019531 -2.4565625 6.22789063 -3.078125 6.95703125 C-4.92370398 8.91889671 -6.79945332 10.45669625 -9 12 C-9.598125 11.67 -10.19625 11.34 -10.8125 11 C-13.05386471 9.79212012 -13.05386471 9.79212012 -16 10 C-4.79704797 1.91881919 -4.79704797 1.91881919 0 0 Z " fill="#073F87" transform="translate(104,52)"/>
<path d="M0 0 C1.98 0.66 3.96 1.32 6 2 C6 2.66 6 3.32 6 4 C6.61875 4.226875 7.2375 4.45375 7.875 4.6875 C10.76058871 6.46977538 11.14672476 7.72911158 12 11 C12.62377571 17.44568234 11.68804253 20.68487988 8 26 C7.34 26.33 6.68 26.66 6 27 C7.875 22.25 7.875 22.25 9 20 C9.42766537 15.81381401 9.44703752 12.11759379 7.875 8.1875 C5.58056008 5.51065343 2.95018669 3.90123142 0 2 C0 1.34 0 0.68 0 0 Z " fill="#180F54" transform="translate(125,173)"/>
<path d="M0 0 C0.66 0 1.32 0 2 0 C1.5625 2.375 1.5625 2.375 0 5 C-2.3268951 5.82176593 -4.568948 6.25103168 -7.00390625 6.640625 C-8.99294857 6.80274008 -8.99294857 6.80274008 -10 8 C-12.4375 8.1875 -12.4375 8.1875 -15 8 C-15.66 7.34 -16.32 6.68 -17 6 C-17 5.01 -17 4.02 -17 3 C-11.39 3 -5.78 3 0 3 C0 2.01 0 1.02 0 0 Z " fill="#0392DA" transform="translate(117,187)"/>
<path d="M0 0 C1.14926266 0.95421808 2.29430541 1.91352045 3.4375 2.875 C4.07558594 3.40867187 4.71367187 3.94234375 5.37109375 4.4921875 C7 6 7 6 8 8 C4.89444745 7.72202422 1.79097058 7.42526358 -1.3125 7.125 C-2.63411133 7.00705078 -2.63411133 7.00705078 -3.98242188 6.88671875 C-4.82998047 6.80292969 -5.67753906 6.71914063 -6.55078125 6.6328125 C-7.33106689 6.55949707 -8.11135254 6.48618164 -8.9152832 6.41064453 C-11 6 -11 6 -14 4 C-13.06027344 3.90912109 -13.06027344 3.90912109 -12.1015625 3.81640625 C-10.87566406 3.69072266 -10.87566406 3.69072266 -9.625 3.5625 C-8.81289062 3.48128906 -8.00078125 3.40007813 -7.1640625 3.31640625 C-4.95727195 3.10909886 -4.95727195 3.10909886 -3 2 C-2.34 2.33 -1.68 2.66 -1 3 C-1 3.66 -1 4.32 -1 5 C-0.01 4.67 0.98 4.34 2 4 C1.34 2.68 0.68 1.36 0 0 Z " fill="#191254" transform="translate(182,25)"/>
<path d="M0 0 C4.83653013 8.81955494 4.25656409 19.23631115 4 29 C2.68 27.35 1.36 25.7 0 24 C0.66 24 1.32 24 2 24 C1.85970581 21.8537974 1.71261836 19.70803782 1.5625 17.5625 C1.48128906 16.36753906 1.40007812 15.17257813 1.31640625 13.94140625 C1.32343886 11.11429756 1.32343886 11.11429756 0 10 C-0.07205511 8.31391034 -0.08386068 6.62499341 -0.0625 4.9375 C-0.05347656 4.01839844 -0.04445312 3.09929687 -0.03515625 2.15234375 C-0.02355469 1.44207031 -0.01195312 0.73179688 0 0 Z " fill="#103A71" transform="translate(216,79)"/>
<path d="M0 0 C5.52677733 -0.19392201 9.75614911 0.2520497 15 2 C15 2.66 15 3.32 15 4 C12.69 3.67 10.38 3.34 8 3 C8 3.99 8 4.98 8 6 C5.36 6 2.72 6 0 6 C1.32 4.35 2.64 2.7 4 1 C2.68 0.67 1.36 0.34 0 0 Z " fill="#201161" transform="translate(130,2)"/>
<path d="M0 0 C2.95064148 -0.2208564 5.68368231 -0.28060989 8.625 -0.1875 C9.42679688 -0.17396484 10.22859375 -0.16042969 11.0546875 -0.14648438 C13.03674378 -0.11109051 15.01845551 -0.05728234 17 0 C17 0.33 17 0.66 17 1 C15.91460937 1.26554688 14.82921875 1.53109375 13.7109375 1.8046875 C12.26559353 2.16133082 10.82028278 2.5181088 9.375 2.875 C8.30572266 3.13603516 8.30572266 3.13603516 7.21484375 3.40234375 C3.07203784 4.42854338 -0.96726678 5.58790729 -5 7 C-5 6.34 -5 5.68 -5 5 C-4.01 4.34 -3.02 3.68 -2 3 C-1.34 2.01 -0.68 1.02 0 0 Z " fill="#238AC2" transform="translate(115,140)"/>
<path d="M0 0 C0 0.66 0 1.32 0 2 C-0.56847656 2.18175781 -1.13695313 2.36351563 -1.72265625 2.55078125 C-10.34367148 4.94472253 -10.34367148 4.94472253 -17.625 9.6875 C-19 11 -19 11 -21.6875 11.1875 C-22.450625 11.125625 -23.21375 11.06375 -24 11 C-21.37621389 7.88309097 -18.30439284 6.58354417 -14.625 4.9375 C-13.50351563 4.43089844 -12.38203125 3.92429687 -11.2265625 3.40234375 C-3.39832869 0 -3.39832869 0 0 0 Z " fill="#1D88C0" transform="translate(128,107)"/>
<path d="M0 0 C-0.66 0 -1.32 0 -2 0 C-1.34 1.65 -0.68 3.3 0 5 C-6.19887485 5.37952295 -10.4477112 4.8352113 -16 2 C-13.21176345 0.9673198 -12.1322726 0.95490707 -9.25 1.9375 C-8.5075 2.288125 -7.765 2.63875 -7 3 C-6.67 2.01 -6.34 1.02 -6 0 C-3 -1 -3 -1 0 0 Z " fill="#0F8CCD" transform="translate(102,190)"/>
<path d="M0 0 C0 0.33 0 0.66 0 1 C2.97 1.495 2.97 1.495 6 2 C2.62241767 4.25172155 -0.07743788 3.93758153 -4.02734375 3.8046875 C-7.15299782 4.1141582 -8.84695866 5.84695866 -11 8 C-10.60935585 5.53471865 -10.26760629 4.26692012 -8.4765625 2.48046875 C-7.86554688 2.05378906 -7.25453125 1.62710938 -6.625 1.1875 C-6.01914063 0.74792969 -5.41328125 0.30835938 -4.7890625 -0.14453125 C-3 -1 -3 -1 0 0 Z " fill="#150F63" transform="translate(117,170)"/>
<path d="M0 0 C0.66 0.33 1.32 0.66 2 1 C1.01 2.485 1.01 2.485 0 4 C-0.66 3.67 -1.32 3.34 -2 3 C-2 3.99 -2 4.98 -2 6 C-3.546875 6.556875 -3.546875 6.556875 -5.125 7.125 C-9.39303156 8.92435343 -11.90393966 11.60188499 -15 15 C-15.66 14.67 -16.32 14.34 -17 14 C-11.80762601 8.42562575 -6.50296493 3.97403413 0 0 Z " fill="#1986C2" transform="translate(102,118)"/>
<path d="M0 0 C2.84072482 2.71721504 3.90979788 4.0979788 4.3125 8.125 C5.11340291 12.63918002 6.78467316 16.03301937 9 20 C8.34 20.33 7.68 20.66 7 21 C0.29612756 7.55125285 0.29612756 7.55125285 0 0 Z " fill="#180E4F" transform="translate(10,138)"/>
<path d="M0 0 C0.63228516 0.86625 0.63228516 0.86625 1.27734375 1.75 C3.49303611 4.64396553 5.92975967 7.30330527 8.37890625 10 C9.94054446 11.92664762 10.98823795 13.74492837 12 16 C11.01 15.67 10.02 15.34 9 15 C9 14.34 9 13.68 9 13 C8.2575 12.835 7.515 12.67 6.75 12.5 C2.80793737 10.34978402 1.47276392 7.15500435 0 3 C0 2.01 0 1.02 0 0 Z " fill="#0D3F7A" transform="translate(68,175)"/>
<path d="M0 0 C0.78375 0.185625 1.5675 0.37125 2.375 0.5625 C4.97089775 1.25962266 4.97089775 1.25962266 7 0 C7.144375 0.721875 7.28875 1.44375 7.4375 2.1875 C9.81403254 6.46525857 13.69639116 7.91903688 18 10 C17.01 10.495 17.01 10.495 16 11 C9.84798598 8.36483779 4.35407455 5.10477706 0 0 Z " fill="#0D3A70" transform="translate(61,191)"/>
<path d="M0 0 C1.32 0.33 2.64 0.66 4 1 C1.03 3.97 -1.94 6.94 -5 10 C-5.33 8.68 -5.66 7.36 -6 6 C-5.195625 5.7525 -4.39125 5.505 -3.5625 5.25 C-0.828919 4.27761141 -0.828919 4.27761141 -0.1875 1.875 C-0.125625 1.25625 -0.06375 0.6375 0 0 Z " fill="#093F79" transform="translate(86,117)"/>
<path d="M0 0 C1.03253906 0.00676758 1.03253906 0.00676758 2.0859375 0.01367188 C3.76566335 0.02533664 5.44534375 0.04326729 7.125 0.0625 C7.125 0.3925 7.125 0.7225 7.125 1.0625 C6.36574219 1.12308594 5.60648438 1.18367188 4.82421875 1.24609375 C3.83035156 1.32988281 2.83648437 1.41367187 1.8125 1.5 C0.82636719 1.58121094 -0.15976563 1.66242187 -1.17578125 1.74609375 C-3.96875599 1.98062559 -3.96875599 1.98062559 -6.875 3.0625 C-9.2156065 2.78480092 -11.55124308 2.45710023 -13.875 2.0625 C-13.875 1.7325 -13.875 1.4025 -13.875 1.0625 C-9.21962644 0.14157719 -4.72814567 -0.05955997 0 0 Z " fill="#103A78" transform="translate(154.875,37.9375)"/>
<path d="M0 0 C0.66 0.33 1.32 0.66 2 1 C-0.38957269 4.24299151 -2.2047869 6.50902342 -6 8 C-6 6.02 -6 4.04 -6 2 C-4.02 2 -2.04 2 0 2 C0 1.34 0 0.68 0 0 Z " fill="#0F3D79" transform="translate(130,193)"/>
<path d="M0 0 C0.66 0 1.32 0 2 0 C2 0.66 2 1.32 2 2 C2.99 2 3.98 2 5 2 C5.66 3.32 6.32 4.64 7 6 C7.99 6 8.98 6 10 6 C10.33 7.32 10.66 8.64 11 10 C6.23439379 8.59835111 3.04117557 5.84588526 0 2 C0 1.34 0 0.68 0 0 Z " fill="#1885BB" transform="translate(75,181)"/>
<path d="M0 0 C0.66 0 1.32 0 2 0 C2.66 1.98 3.32 3.96 4 6 C1 7 1 7 -1.1875 6.0625 C-1.785625 5.711875 -2.38375 5.36125 -3 5 C-1.625 2.5 -1.625 2.5 0 0 Z " fill="#1E135E" transform="translate(35,168)"/>
<path d="M0 0 C0.99 0.33 1.98 0.66 3 1 C2.67 2.32 2.34 3.64 2 5 C1.401875 5.103125 0.80375 5.20625 0.1875 5.3125 C-2.28243264 6.08876455 -3.32251235 7.07088921 -5 9 C-4.42647107 5.12867972 -2.51295648 2.91827204 0 0 Z " fill="#093C7C" transform="translate(57,90)"/>
<path d="M0 0 C3.63 0 7.26 0 11 0 C10.67 0.99 10.34 1.98 10 3 C6.7 2.67 3.4 2.34 0 2 C0 1.34 0 0.68 0 0 Z " fill="#1B0D5C" transform="translate(87,211)"/>
<path d="M0 0 C5.94 0 11.88 0 18 0 C18 0.99 18 1.98 18 3 C15.74943278 2.88566637 13.49953326 2.75813564 11.25 2.625 C9.99703125 2.55539063 8.7440625 2.48578125 7.453125 2.4140625 C4 2 4 2 0 0 Z " fill="#104378" transform="translate(94,197)"/>
<path d="M0 0 C-3.32307692 3.93846154 -3.32307692 3.93846154 -6.75 4.25 C-7.4925 4.1675 -8.235 4.085 -9 4 C-8 1 -8 1 -6.1875 -0.25 C-3.66056586 -1.11637742 -2.47778006 -0.88492145 0 0 Z " fill="#024794" transform="translate(111,200)"/>
<path d="M0 0 C0.68707555 2.49064888 1 4.37886292 1 7 C-0.175625 7.4640625 -0.175625 7.4640625 -1.375 7.9375 C-3.92330128 8.92875038 -3.92330128 8.92875038 -6 10 C-4.6302836 6.00499382 -2.74277578 3.19990508 0 0 Z " fill="#1587C2" transform="translate(84,133)"/>
<path d="M0 0 C5.63470383 -0.5497272 8.38987758 1.04952165 13 4 C13 4.66 13 5.32 13 6 C12.01 6 11.02 6 10 6 C9.67 5.34 9.34 4.68 9 4 C6.88672575 3.09274566 6.88672575 3.09274566 4.4375 2.375 C3.61121094 2.11460937 2.78492188 1.85421875 1.93359375 1.5859375 C1.29550781 1.39257812 0.65742188 1.19921875 0 1 C0 0.67 0 0.34 0 0 Z " fill="#170C53" transform="translate(132,168)"/>
<path d="M0 0 C0.66 0.33 1.32 0.66 2 1 C-2.75 4 -2.75 4 -5 4 C-5 4.99 -5 5.98 -5 7 C-6.65 7 -8.3 7 -10 7 C-7.01767477 3.67356033 -4.13629913 1.70847138 0 0 Z " fill="#0D3874" transform="translate(104,52)"/>
<path d="M0 0 C2.64 0.66 5.28 1.32 8 2 C7.67 2.99 7.34 3.98 7 5 C4.36 4.01 1.72 3.02 -1 2 C-0.67 1.34 -0.34 0.68 0 0 Z " fill="#281672" transform="translate(70,203)"/>
<path d="M0 0 C0.66 0 1.32 0 2 0 C1.34 3.3 0.68 6.6 0 10 C-0.99 10 -1.98 10 -3 10 C-2.01 6.7 -1.02 3.4 0 0 Z " fill="#160A57" transform="translate(11,69)"/>
<path d="M0 0 C0.66 0.33 1.32 0.66 2 1 C1.875 2.875 1.875 2.875 1 5 C-2.0625 6.25 -2.0625 6.25 -5 7 C-5 6.34 -5 5.68 -5 5 C-4.01 4.34 -3.02 3.68 -2 3 C-1.34 2.01 -0.68 1.02 0 0 Z " fill="#138CCC" transform="translate(115,140)"/>
<path d="M0 0 C1.32 0.33 2.64 0.66 4 1 C4 1.66 4 2.32 4 3 C5.32 3.66 6.64 4.32 8 5 C6.02 5 4.04 5 2 5 C1.34 3.35 0.68 1.7 0 0 Z " fill="#1D1060" transform="translate(78,206)"/>
<path d="M0 0 C0.99 0.66 1.98 1.32 3 2 C2.236875 2.45375 1.47375 2.9075 0.6875 3.375 C-1.23632814 4.53824492 -3.12941224 5.7529415 -5 7 C-4.60196439 4.11424181 -4.20990931 3.17810487 -1.9375 1.25 C-1.298125 0.8375 -0.65875 0.425 0 0 Z " fill="#22156C" transform="translate(111,171)"/>
<path d="M0 0 C1.70840281 1.63412443 2.93453047 2.86906094 4 5 C3.72057545 6.67654729 3.39171753 8.34608154 3 10 C-0.00617269 6.99382731 0.40414684 4.17618402 0 0 Z " fill="#1D1059" transform="translate(10,138)"/>
<path d="M0 0 C0.99 0.33 1.98 0.66 3 1 C3.33 2.65 3.66 4.3 4 6 C2.68 6 1.36 6 0 6 C0 4.02 0 2.04 0 0 Z " fill="#004096" transform="translate(112,196)"/>
<path d="M0 0 C2.475 0.495 2.475 0.495 5 1 C5 1.99 5 2.98 5 4 C4.34 3.67 3.68 3.34 3 3 C3 4.32 3 5.64 3 7 C2.34 6.67 1.68 6.34 1 6 C0.375 2.9375 0.375 2.9375 0 0 Z " fill="#1C74B0" transform="translate(116,180)"/>
</svg>
