<?xml version="1.0" encoding="UTF-8"?>
<svg version="1.1" xmlns="http://www.w3.org/2000/svg" width="296" height="170">
<path d="M0 0 C0.66 0 1.32 0 2 0 C1.93039063 1.46759766 1.93039063 1.46759766 1.859375 2.96484375 C1.52748228 15.01966139 3.93221784 22.88639422 12 32 C33.95865614 54.33725366 71.87315428 60.06063496 101.87998962 60.32209778 C104.39929688 60.32946096 106.91820854 60.3234451 109.4375 60.3125 C110.31162537 60.31067719 111.18575073 60.30885437 112.08636475 60.30697632 C148.33058475 60.18021363 181.92670234 52.76138504 214.91967773 37.84448242 C216.93161666 37.02775941 218.88292032 36.46989789 221 36 C219.61746582 40.14760255 216.7371281 41.59384977 213.25 43.9375 C212.54190186 44.41622559 211.83380371 44.89495117 211.10424805 45.38818359 C182.92810474 64.13177434 151.91472891 76.87911209 118.70263672 83.44873047 C116.1012594 83.97934564 113.52482637 84.58016175 110.94140625 85.19140625 C83.5117004 91.18601141 48.77355 92.06123446 22 83 C21.34080566 82.79181641 20.68161133 82.58363281 20.00244141 82.36914062 C5.77943728 77.82542569 -7.50299589 69.78330891 -15.125 56.625 C-19.56630342 46.81183434 -20.09010435 35.93372334 -16.73046875 25.65234375 C-13.06875224 16.08299786 -7.24454549 7.24454549 0 0 Z " fill="#BDBDC1" transform="translate(18,82)"/>
<path d="M0 0 C6.8576605 6.55045316 11.77795696 14.26594248 12.328125 23.8515625 C12.65751326 40.76223141 7.11632405 53.4036499 -3.39453125 66.80078125 C-4.12736328 67.54908203 -4.12736328 67.54908203 -4.875 68.3125 C-5.535 68.3125 -6.195 68.3125 -6.875 68.3125 C-6.84019531 67.47847656 -6.80539062 66.64445312 -6.76953125 65.78515625 C-6.49649823 54.43478338 -8.48751827 46.13337371 -15.875 37.3125 C-36.32203816 16.74862162 -72.0611991 10.26750623 -99.87890625 10.109375 C-100.71126801 10.10231537 -101.54362976 10.09525574 -102.4012146 10.08798218 C-142.25008262 9.82705345 -179.33974891 15.4751633 -215.73486328 32.32910156 C-219.43147783 34.02770565 -223.15387562 35.66844651 -226.875 37.3125 C-224.9572974 32.97485302 -221.97113996 30.81835799 -218.1875 28.125 C-217.51831543 27.64305176 -216.84913086 27.16110352 -216.15966797 26.66455078 C-209.30056787 21.79364219 -202.19590076 17.44782961 -194.875 13.3125 C-194.23401367 12.94415039 -193.59302734 12.57580078 -192.93261719 12.19628906 C-144.36653889 -15.53857388 -48.43761599 -41.20130996 0 0 Z " fill="#0254A4" transform="translate(283.875,18.6875)"/>
<path d="M0 0 C25 0 25 0 32 3 C36.31490084 7.45873087 36.26932727 12.59902703 36.234375 18.5234375 C35.92286252 21.81508599 34.68654746 24.18908756 33 27 C32.81836562 29.17369692 32.81836562 29.17369692 34.48168945 31.2800293 C36.19460168 34.34861832 36.35126386 36.04125664 36.29296875 39.51953125 C36.2784668 41.0519043 36.2784668 41.0519043 36.26367188 42.61523438 C36.23853516 43.67033203 36.21339844 44.72542969 36.1875 45.8125 C36.16719727 47.42415039 36.16719727 47.42415039 36.14648438 49.06835938 C36.11122976 51.71245541 36.05742566 54.35629256 36 57 C30.39 57 24.78 57 19 57 C18.505 45.12 18.505 45.12 18 33 C17.67 40.92 17.34 48.84 17 57 C11.39 57 5.78 57 0 57 C0 38.19 0 19.38 0 0 Z M17 11 C17 14.3 17 17.6 17 21 C17.66 21 18.32 21 19 21 C19 17.7 19 14.4 19 11 C18.34 11 17.68 11 17 11 Z " fill="#000000" transform="translate(84,58)"/>
<path d="M0 0 C28.4375 0 28.4375 0 34.375 5 C38.37095793 12.37715311 37.08390631 21.87184228 37.125 30.0625 C37.12983398 30.98409912 37.13466797 31.90569824 37.13964844 32.85522461 C37.09785803 49.62063991 37.09785803 49.62063991 33.5625 54.0625 C29.55846049 57.08994451 27.46694445 57.1194215 22.4609375 57.09765625 C21.28837402 57.09515869 20.11581055 57.09266113 18.90771484 57.09008789 C16.664021 57.07643188 16.664021 57.07643188 14.375 57.0625 C9.63125 57.041875 4.8875 57.02125 0 57 C0 38.19 0 19.38 0 0 Z M16 11 C16 22.55 16 34.1 16 46 C16.99 46 17.98 46 19 46 C19 34.45 19 22.9 19 11 C18.01 11 17.02 11 16 11 Z " fill="#000000" transform="translate(137,58)"/>
<path d="M0 0 C3.58901112 2.17309323 5.14239325 4.29199016 6.375 8.375 C6.58960665 11.42441076 6.51433507 14.3096284 6.375 17.375 C1.095 17.375 -4.185 17.375 -9.625 17.375 C-9.625 14.735 -9.625 12.095 -9.625 9.375 C-10.285 9.375 -10.945 9.375 -11.625 9.375 C-11.79827383 12.66720277 -11.87389992 14.39443212 -10.625 17.375 C-8.03153986 19.44976811 -5.31945974 21.0045788 -2.43359375 22.64453125 C2.26534227 25.53970323 5.62489502 29.12468506 7.375 34.375 C7.52119515 36.66351645 7.59591336 38.95700316 7.625 41.25 C7.65078125 42.46429688 7.6765625 43.67859375 7.703125 44.9296875 C7.21786597 50.02490727 5.48832397 52.43879575 1.625 55.6875 C-4.23648737 58.73697317 -11.25583099 58.17974382 -17.625 57.375 C-21.57623459 55.91776625 -24.47378762 54.15237858 -26.78125 50.58984375 C-27.85586318 47.76898415 -28.08908626 45.19442913 -28.3125 42.1875 C-28.39886719 41.12144531 -28.48523438 40.05539063 -28.57421875 38.95703125 C-28.59097656 38.10496094 -28.60773438 37.25289062 -28.625 36.375 C-26.74675109 34.49675109 -23.58564724 34.98397603 -21.0625 34.8125 C-19.86496094 34.72871094 -18.66742188 34.64492187 -17.43359375 34.55859375 C-16.50675781 34.49800781 -15.57992187 34.43742187 -14.625 34.375 C-15.38425781 33.87871094 -16.14351562 33.38242188 -16.92578125 32.87109375 C-27.19842513 25.8494552 -27.19842513 25.8494552 -28.625 19.375 C-29.22520426 13.24754161 -29.56842508 7.42751339 -25.625 2.375 C-18.69265793 -3.29530031 -7.99895055 -3.5124543 0 0 Z M-11.625 36.375 C-11.625 40.005 -11.625 43.635 -11.625 47.375 C-10.635 47.045 -9.645 46.715 -8.625 46.375 C-8.625 43.405 -8.625 40.435 -8.625 37.375 C-9.615 37.045 -10.605 36.715 -11.625 36.375 Z " fill="#010101" transform="translate(217.625,58.625)"/>
<path d="M0 0 C0.99 0.495 0.99 0.495 2 1 C-1 3 -1 3 -4 3 C-4 3.66 -4 4.32 -4 5 C-4.66 5 -5.32 5 -6 5 C-6.33 5.66 -6.66 6.32 -7 7 C-8.66666667 7.33333333 -10.33333333 7.66666667 -12 8 C-13.03125 8.515625 -14.0625 9.03125 -15.125 9.5625 C-18 11 -18 11 -21 11 C-22.10636395 13.39068734 -22.10636395 13.39068734 -23 16 C-22.505 16.99 -22.505 16.99 -22 18 C-17.03924906 17.606454 -12.21466622 17.12841263 -7.375 15.9375 C-3.15162603 14.92118006 0.66548491 14.84238127 5 15 C5 15.33 5 15.66 5 16 C4.30664551 16.15033691 3.61329102 16.30067383 2.89892578 16.45556641 C-17.36293887 20.88711657 -36.04195542 26.30235892 -54.85986328 35.01660156 C-58.55647783 36.71520565 -62.27887562 38.35594651 -66 40 C-64.0822974 35.66235302 -61.09613996 33.50585799 -57.3125 30.8125 C-56.64331543 30.33055176 -55.97413086 29.84860352 -55.28466797 29.35205078 C-48.42794267 24.48282863 -41.32899274 20.11708357 -34 16 C-32.99066406 15.43152344 -32.99066406 15.43152344 -31.9609375 14.8515625 C-24.01460783 10.41709388 -15.95937636 6.38934761 -7.5625 2.875 C-6.83434082 2.56739746 -6.10618164 2.25979492 -5.35595703 1.94287109 C-3.59558899 1.23021073 -1.79977733 0.60628541 0 0 Z " fill="#0F559D" transform="translate(123,16)"/>
<path d="M0 0 C0.66 0 1.32 0 2 0 C1.67 4.62 1.34 9.24 1 14 C0.34 14 -0.32 14 -1 14 C-1.33 11.69 -1.66 9.38 -2 7 C-2.2475 7.61875 -2.495 8.2375 -2.75 8.875 C-4.20628639 11.35068687 -5.37812506 11.95125002 -8 13 C-8 9.21775154 -6.90729614 8.2717904 -4.5625 5.375 C-3.92441406 4.57835938 -3.28632813 3.78171875 -2.62890625 2.9609375 C-1 1 -1 1 0 0 Z " fill="#C5C5C7" transform="translate(18,82)"/>
<path d="M0 0 C2 3 2 3 3 5 C6.02934491 5.65772428 6.02934491 5.65772428 9 6 C7.51131293 10.60139641 5.25370145 13.50227094 2 17 C1.34 17 0.68 17 0 17 C0 11.39 0 5.78 0 0 Z " fill="#07529E" transform="translate(277,70)"/>
<path d="M0 0 C-1.13177241 3.39531723 -2.03312013 4.12550184 -4.8125 6.25 C-5.49957031 6.79140625 -6.18664062 7.3328125 -6.89453125 7.890625 C-9 9 -9 9 -11.26171875 8.671875 C-11.83535156 8.45015625 -12.40898437 8.2284375 -13 8 C-11.62087597 4.59863711 -10.37388141 3.30394435 -7.0625 1.75 C-6.37285156 1.41484375 -5.68320313 1.0796875 -4.97265625 0.734375 C-3 0 -3 0 0 0 Z " fill="#A8A8AB" transform="translate(239,118)"/>
<path d="M0 0 C-3 2 -3 2 -6 2 C-6 2.66 -6 3.32 -6 4 C-6.66 4 -7.32 4 -8 4 C-8.33 4.66 -8.66 5.32 -9 6 C-10.66475686 6.34274406 -12.33195323 6.67364302 -14 7 C-16.37816318 7.91581439 -18.67521602 8.95156801 -21 10 C-21.66 9.34 -22.32 8.68 -23 8 C-19.54713337 6.46652884 -16.08692164 4.95040472 -12.625 3.4375 C-11.64015625 2.99986328 -10.6553125 2.56222656 -9.640625 2.11132812 C-8.69960937 1.70205078 -7.75859375 1.29277344 -6.7890625 0.87109375 C-5.91975098 0.48880615 -5.05043945 0.10651855 -4.15478516 -0.28735352 C-2 -1 -2 -1 0 0 Z " fill="#145291" transform="translate(125,17)"/>
<path d="M0 0 C1.2065625 0.0309375 1.2065625 0.0309375 2.4375 0.0625 C-0.88736381 2.80304368 -4.39307886 4.48626049 -8.3125 6.25 C-9.48296875 6.77980469 -10.6534375 7.30960938 -11.859375 7.85546875 C-12.75140625 8.25378906 -13.6434375 8.65210938 -14.5625 9.0625 C-13.00288719 5.7302876 -11.76685683 3.9851141 -8.5625 2.0625 C-6.90700469 1.67750109 -5.2402567 1.33456865 -3.5625 1.0625 C-2.5625 0.0625 -2.5625 0.0625 0 0 Z " fill="#134A88" transform="translate(71.5625,46.9375)"/>
<path d="M0 0 C0 0.66 0 1.32 0 2 C-0.84304687 2.19335938 -1.68609375 2.38671875 -2.5546875 2.5859375 C-4.19824219 2.97652344 -4.19824219 2.97652344 -5.875 3.375 C-6.96554688 3.63023438 -8.05609375 3.88546875 -9.1796875 4.1484375 C-12.10408455 4.78906215 -12.10408455 4.78906215 -14 7 C-15.32 6.01 -16.64 5.02 -18 4 C-15.75194998 3.32678716 -13.50147776 2.66165877 -11.25 2 C-9.99703125 1.62875 -8.7440625 1.2575 -7.453125 0.875 C-4 0 -4 0 0 0 Z " fill="#094A8F" transform="translate(156,7)"/>
<path d="M0 0 C0.103125 0.598125 0.20625 1.19625 0.3125 1.8125 C1.08876455 4.28243264 2.07088921 5.32251235 4 7 C3.34 7 2.68 7 2 7 C2 8.65 2 10.3 2 12 C-0.76544722 8.54319097 -2.84921278 4.85658398 -5 1 C-2 0 -2 0 0 0 Z " fill="#125496" transform="translate(275,57)"/>
<path d="M0 0 C1.11375 0.185625 2.2275 0.37125 3.375 0.5625 C6.82568861 1.31680657 6.82568861 1.31680657 9 0 C9.99 2.31 10.98 4.62 12 7 C7.69235185 5.43358249 3.93828536 3.31663844 0 1 C0 0.67 0 0.34 0 0 Z " fill="#0F5092" transform="translate(249,42)"/>
<path d="M0 0 C2.37826383 3.56739574 2.38656475 5.87242542 2.65625 10.0390625 C2.7696875 10.68617187 2.883125 11.33328125 3 12 C3.66 12.33 4.32 12.66 5 13 C3.625 15 3.625 15 2 17 C1.34 17 0.68 17 0 17 C0 11.39 0 5.78 0 0 Z " fill="#235588" transform="translate(277,70)"/>
<path d="M0 0 C0.66 1.32 1.32 2.64 2 4 C0.25 6.0625 0.25 6.0625 -2 8 C-4.25 7.75 -4.25 7.75 -6 7 C-5.67 6.34 -5.34 5.68 -5 5 C-4.34 5 -3.68 5 -3 5 C-2.87625 4.360625 -2.7525 3.72125 -2.625 3.0625 C-2.41875 2.381875 -2.2125 1.70125 -2 1 C-1.34 0.67 -0.68 0.34 0 0 Z " fill="#B8B7BB" transform="translate(226,123)"/>
<path d="M0 0 C2.97 0.33 5.94 0.66 9 1 C9 1.66 9 2.32 9 3 C5.25 4.125 5.25 4.125 3 3 C1.67139075 2.64830932 0.33841672 2.31229724 -1 2 C-0.67 1.34 -0.34 0.68 0 0 Z " fill="#C6C6C8" transform="translate(82,139)"/>
<path d="M0 0 C2.1723491 3.25852365 4.07119658 6.59244728 6 10 C5.01 10.33 4.02 10.66 3 11 C2.67 9.35 2.34 7.7 2 6 C1.34 6 0.68 6 0 6 C0 4.68 0 3.36 0 2 C-0.66 1.67 -1.32 1.34 -2 1 C-1.34 0.67 -0.68 0.34 0 0 Z " fill="#CBCCCE" transform="translate(20,100)"/>
<path d="M0 0 C1.75070517 0.11470137 3.50057536 0.24219028 5.25 0.375 C6.22453125 0.44460937 7.1990625 0.51421875 8.203125 0.5859375 C11 1 11 1 15 3 C11.7 3.33 8.4 3.66 5 4 C5 3.01 5 2.02 5 1 C3.35 1 1.7 1 0 1 C0 0.67 0 0.34 0 0 Z " fill="#125395" transform="translate(239,2)"/>
<path d="M0 0 C1.3410477 0.75733274 2.67269781 1.53132736 4 2.3125 C5.11375 2.95638672 5.11375 2.95638672 6.25 3.61328125 C6.8275 4.07089844 7.405 4.52851562 8 5 C8 5.99 8 6.98 8 8 C5 8 5 8 2.8125 6.125 C1 4 1 4 1 2 C0.34 1.67 -0.32 1.34 -1 1 C-0.67 0.67 -0.34 0.34 0 0 Z " fill="#C4C5C8" transform="translate(32,117)"/>
<path d="M0 0 C4.75 0.75 4.75 0.75 7 3 C6.01 3.66 5.02 4.32 4 5 C2.68 4.34 1.36 3.68 0 3 C0 2.01 0 1.02 0 0 Z " fill="#C3C3C7" transform="translate(48,128)"/>
<path d="M0 0 C2.31 0.66 4.62 1.32 7 2 C7 2.99 7 3.98 7 5 C2.25 3.125 2.25 3.125 0 2 C0 1.34 0 0.68 0 0 Z " fill="#BFC8CA" transform="translate(18,153)"/>
</svg>
